<svg xmlns="http://www.w3.org/2000/svg" width="320" height="220" viewBox="0 0 320 220" fill="none" role="img" aria-label="Ilustración institucional Rafael Argote Vega">
<defs><linearGradient id="soft" x1="0" y1="0" x2="1" y2="1"><stop stop-color="#EAFBFC"/><stop offset="1" stop-color="#D6F1F3"/></linearGradient></defs>
<path d="M36 194c47-50 82-108 98-175M109 89C85 45 57 36 30 32c-3 35 19 59 70 73M130 53c13-26 33-39 62-43-1 33-17 51-57 61M94 131c-29-26-60-27-83-22 10 29 32 44 71 40M179 191c42-48 83-101 99-156M238 95c-24-34-47-37-67-36 4 29 23 49 55 50M260 77c12-23 27-33 51-33-5 28-19 42-60 51M211 142c-24-18-48-18-67-12 13 27 29 36 57 28" fill="#75BFC8" stroke="#0A8794" stroke-width="3" stroke-linejoin="round"/><path d="M36 194c47-50 82-108 98-175M179 191c42-48 83-101 99-156" stroke="#173653" stroke-width="4" stroke-linecap="round"/><path d="m162 32 4-10 4 10 10 4-10 4-4 10-4-10-10-4 10-4Z" fill="#F6C251"/>
</svg>